<?xml version="1.0" standalone="no"?>
<!DOCTYPE svg PUBLIC "-//W3C//DTD SVG 20010904//EN"
 "http://www.w3.org/TR/2001/REC-SVG-20010904/DTD/svg10.dtd">
<svg version="1.0" xmlns="http://www.w3.org/2000/svg"
 width="483.000000pt" height="364.000000pt" viewBox="0 0 483.000000 364.000000"
 preserveAspectRatio="xMidYMid meet">
<metadata>
Created by potrace 1.11, written by Peter Selinger 2001-2013
</metadata>
<g transform="translate(0.000000,364.000000) scale(0.100000,-0.100000)"
fill="#000000" stroke="none">
<path d="M3804 3562 c-34 -40 -167 -210 -213 -273 -19 -27 -35 -24 -17 3 9 12
16 27 16 32 0 5 -14 -12 -31 -38 -45 -67 -174 -195 -246 -244 -35 -24 -63 -45
-63 -48 0 -3 6 -2 13 2 6 4 3 -2 -7 -14 -11 -12 -25 -22 -32 -22 -16 0 -33
-30 -27 -48 4 -10 8 -8 18 5 10 13 10 20 2 26 -7 4 0 5 16 1 16 -4 27 -2 27 5
0 10 102 91 115 91 8 0 68 42 80 57 5 7 33 23 61 37 28 14 57 33 64 41 7 8 21
15 31 15 11 0 19 4 19 8 0 5 18 17 40 27 22 10 37 22 33 28 -3 6 -1 7 5 3 6
-4 34 3 62 15 31 13 47 25 40 29 -16 10 37 23 53 14 7 -4 8 -3 4 1 -4 5 3 15
15 22 44 24 2 13 -81 -22 -46 -20 -91 -34 -100 -33 -9 2 -15 -3 -13 -11 2 -9
-3 -11 -13 -7 -11 4 -14 2 -9 -6 5 -8 2 -9 -9 -5 -9 3 -19 1 -23 -5 -5 -7 -2
-8 6 -3 9 6 11 4 6 -4 -5 -7 -14 -10 -22 -7 -8 3 -13 0 -11 -6 1 -6 -4 -13
-12 -16 -9 -3 -11 0 -6 8 5 9 4 11 -4 6 -6 -4 -9 -11 -6 -16 4 -7 -36 -40 -50
-40 -5 0 15 41 26 50 3 3 15 21 26 40 12 20 33 46 47 59 14 14 26 29 26 35 0
6 17 32 38 58 122 152 157 198 150 198 -2 0 -21 -21 -44 -48z"/>
<path d="M1081 3443 c-1 -17 3 -42 7 -55 5 -13 7 -42 4 -66 l-4 -43 -14 27
c-8 14 -14 37 -14 51 0 13 -4 21 -10 18 -5 -3 -10 -25 -10 -48 0 -33 -3 -39
-11 -27 -8 12 -10 10 -5 -10 3 -14 3 -56 -1 -95 l-7 -70 -12 55 c-10 47 -12 7
-15 -283 -2 -185 -2 -337 2 -337 3 0 5 -11 5 -24 0 -14 -4 -22 -8 -20 -16 10
-7 -51 14 -94 24 -50 37 -139 19 -128 -7 5 -9 1 -5 -8 3 -9 10 -13 15 -10 5 3
21 -8 35 -23 l27 -28 -17 33 c-9 18 -21 30 -26 27 -6 -4 -10 1 -10 10 0 10 5
13 12 9 7 -5 9 -2 6 7 -3 8 -11 40 -18 72 -7 31 -17 57 -22 57 -4 0 -8 5 -8
11 0 5 5 7 10 4 13 -8 13 8 -1 22 -18 18 7 51 49 63 46 12 55 13 47 0 -3 -5
-16 -10 -27 -10 -12 0 -18 -3 -15 -7 9 -8 87 17 87 28 0 5 -8 6 -17 2 -10 -3
-15 -3 -11 2 4 4 24 9 45 11 35 3 108 14 143 21 101 19 350 30 350 16 0 -5 51
-6 112 -5 115 4 244 -9 356 -34 35 -8 68 -12 74 -8 7 4 8 3 4 -4 -7 -11 13
-17 38 -13 5 1 12 -2 15 -6 3 -5 34 -17 67 -27 49 -15 65 -16 80 -6 18 11 18
11 1 6 -24 -8 -134 24 -118 34 21 12 -306 68 -421 72 -51 2 -44 3 37 8 88 5
-95 11 -458 15 -20 0 -37 3 -37 7 0 4 48 9 108 11 l107 3 -117 2 c-99 2 -116
4 -112 17 4 8 10 12 15 9 5 -3 8 -2 7 3 -5 17 35 84 83 138 27 31 49 65 49 75
0 10 4 22 10 25 5 3 15 16 21 28 7 12 -19 -11 -57 -52 -39 -42 -81 -99 -97
-132 -15 -33 -32 -59 -38 -59 -8 0 -7 5 1 15 7 9 10 18 7 21 -7 8 -30 -35 -33
-62 -5 -41 -33 -62 -77 -58 -25 2 -61 -4 -93 -15 -28 -11 -54 -18 -56 -15 -3
2 -31 -5 -64 -16 -32 -11 -64 -18 -70 -16 -14 5 -17 126 -4 126 5 0 10 -6 13
-12 2 -7 8 9 12 35 4 26 5 51 1 54 -3 4 -6 -9 -7 -28 0 -30 -1 -32 -9 -12 -10
25 -7 203 5 268 5 31 4 37 -5 25 -13 -17 -7 53 10 130 6 25 13 62 16 83 3 21
9 48 13 59 7 20 8 20 15 -8 l8 -29 14 25 15 25 -4 -27 c-2 -16 2 -33 10 -40 8
-7 12 -21 9 -34 -4 -13 0 -27 9 -34 8 -7 13 -16 10 -20 -2 -4 1 -30 9 -59 7
-28 10 -51 7 -51 -3 0 -1 -4 5 -8 6 -4 13 -25 17 -47 l5 -40 -13 30 c-18 38
-19 13 -4 -52 21 -90 26 -88 28 11 0 55 5 102 9 105 10 7 26 43 23 54 -1 5 17
48 40 95 112 235 131 282 112 282 -11 0 -36 -41 -38 -60 -1 -12 -75 -182 -134
-310 -10 -22 -11 -17 -7 30 5 56 31 122 71 175 27 35 57 105 46 105 -4 0 -13
-16 -20 -36 -7 -19 -15 -33 -18 -30 -3 3 -19 -23 -35 -57 -16 -34 -34 -63 -39
-65 -5 -2 -9 -13 -9 -25 0 -28 -19 -60 -21 -37 -1 8 -5 2 -10 -15 -7 -27 -8
-26 -6 12 1 23 -1 39 -5 37 -3 -2 -9 10 -13 28 -13 71 -39 176 -55 228 -8 24
-8 24 -9 -7z"/>
<path d="M4137 3431 c-10 -4 -18 -11 -17 -16 0 -6 -11 -11 -25 -13 -14 -2 -25
-8 -25 -13 0 -6 -8 -5 -20 1 -14 8 -26 8 -38 1 -15 -9 -14 -10 7 -8 40 4 33
-17 -17 -48 -26 -16 -88 -65 -139 -107 -51 -43 -99 -78 -108 -78 -9 0 -13 -4
-10 -10 3 -5 2 -10 -2 -10 -5 0 -34 -22 -64 -50 -29 -27 -62 -50 -71 -50 -9 0
-20 -4 -23 -10 -13 -22 39 -8 74 19 76 60 83 61 289 57 104 -2 196 -7 203 -12
8 -4 28 -7 46 -5 18 1 38 -1 45 -6 7 -4 66 -8 130 -8 87 0 120 -4 130 -14 10
-10 10 -12 1 -7 -7 4 -13 2 -13 -3 0 -6 18 -11 39 -11 22 0 43 -4 46 -10 3 -5
32 -10 63 -10 68 0 60 17 -12 25 -27 3 -67 13 -90 22 -37 14 -92 25 -194 39
-18 3 -30 9 -27 13 8 14 -135 30 -323 37 l-172 7 67 49 c37 26 71 48 76 48 4
0 5 5 2 10 -4 6 -27 -4 -56 -26 -62 -45 -74 -40 -16 7 87 72 144 104 98 55
-17 -18 -19 -26 -10 -31 8 -5 10 -4 5 3 -4 7 14 26 44 48 27 20 50 39 50 42 0
3 -5 1 -12 -6 -7 -7 -17 -12 -22 -12 -6 0 -2 7 8 15 10 8 23 12 28 9 5 -3 17
1 26 9 9 8 31 22 47 30 17 9 23 17 15 17 -10 1 -9 4 5 10 l20 9 -20 0 c-11 0
-28 -4 -38 -8z"/>
<path d="M1970 3280 c-14 -11 -19 -20 -11 -20 20 0 -3 -26 -39 -44 -31 -15
-46 -10 -29 10 7 9 6 14 -3 20 -7 4 -10 4 -6 0 4 -5 1 -15 -5 -24 -25 -32
-104 -105 -137 -127 -19 -12 -42 -31 -50 -41 -8 -10 0 -6 18 9 63 51 57 27 -8
-36 -55 -52 -90 -97 -90 -113 0 -2 27 24 60 58 38 40 60 57 60 46 0 -9 -17
-33 -37 -53 l-38 -37 35 23 c19 13 42 33 50 44 8 11 32 39 53 63 22 23 36 42
32 42 -4 0 -2 7 5 15 6 8 9 19 6 24 -4 5 -1 13 5 17 8 5 9 3 4 -7 -8 -12 -6
-12 8 0 9 7 14 17 11 22 -5 8 45 33 52 26 2 -2 -16 -24 -40 -50 -23 -26 -40
-49 -38 -52 3 -3 -3 -15 -14 -28 -11 -12 -26 -31 -33 -42 -23 -34 59 57 100
112 21 28 49 59 61 67 12 9 16 16 9 16 -7 0 0 15 18 35 44 50 39 63 -9 25z"/>
<path d="M1668 2535 c-1 -2 -16 -5 -33 -8 -16 -2 -37 -6 -45 -9 -8 -4 -23 -9
-32 -12 -10 -3 -18 -16 -19 -28 0 -13 -3 -17 -6 -10 -10 25 -22 11 -25 -30 -2
-29 -7 -42 -16 -40 -8 1 -11 -2 -7 -8 3 -6 11 -8 16 -5 5 4 9 -23 9 -65 0 -66
1 -71 26 -80 30 -12 54 -13 39 -2 -40 29 -60 149 -30 188 8 10 15 26 15 35 0
23 87 59 103 43 3 -4 24 -7 47 -8 23 -1 35 1 28 6 -7 4 -8 8 -2 8 5 0 14 -4
20 -9 10 -10 179 -23 169 -13 -3 3 -40 9 -83 13 l-77 7 89 -1 c49 -1 91 -7 93
-12 1 -6 25 -9 53 -9 27 1 47 -2 44 -7 -3 -5 2 -6 11 -3 8 4 21 2 28 -3 6 -5
44 -15 82 -22 90 -17 196 -50 216 -67 8 -8 21 -14 28 -14 15 0 74 -30 81 -41
3 -5 16 -10 28 -12 12 -2 27 -8 33 -14 6 -6 18 -9 27 -6 10 4 13 2 8 -5 -5 -8
3 -12 24 -12 27 0 34 -6 50 -42 11 -24 17 -32 14 -18 -3 14 -17 49 -31 79 -14
30 -26 59 -28 65 -5 26 -18 45 -26 40 -5 -3 -16 11 -26 30 -9 20 -21 36 -25
36 -5 0 -6 5 -2 12 4 7 3 8 -5 4 -8 -5 -7 -13 4 -29 17 -24 20 -41 6 -33 -5 4
-7 -3 -4 -15 4 -12 11 -18 20 -15 8 4 17 -4 23 -18 5 -13 14 -27 19 -31 16 -9
13 -32 -4 -32 -8 0 -12 4 -9 9 3 4 -6 8 -20 8 -14 0 -31 8 -38 18 -7 9 -22 19
-33 20 -11 2 -24 8 -29 13 -6 5 -21 9 -34 9 -13 0 -21 4 -17 10 3 5 12 7 20 3
8 -3 15 0 15 7 0 6 -8 10 -17 9 -10 -2 -29 3 -43 10 -23 11 -24 11 -6 -3 17
-14 17 -16 3 -16 -9 0 -20 7 -25 15 -4 9 -27 18 -53 21 -84 9 -224 36 -233 45
-6 5 -35 9 -65 9 -40 0 -52 3 -41 10 11 7 5 10 -25 11 -91 1 -251 10 -262 14
-6 2 -13 2 -15 0z"/>
<path d="M4405 2351 c-11 -5 -54 -8 -97 -7 -42 0 -74 -2 -72 -6 2 -3 -22 -9
-53 -13 -32 -4 -71 -10 -86 -15 -17 -6 -25 -6 -22 0 8 12 0 13 -23 1 -23 -12
-153 -41 -186 -41 -14 0 -31 -6 -38 -13 -7 -8 -22 -12 -33 -9 -18 4 -18 3 -4
-9 9 -8 45 -57 80 -109 34 -52 103 -148 153 -214 127 -166 149 -197 143 -202
-3 -3 14 -34 38 -68 23 -34 48 -73 55 -86 l13 -24 -29 18 c-16 10 -35 25 -42
34 -18 24 -104 54 -113 40 -4 -6 -18 -9 -33 -6 -45 9 -18 -9 57 -38 39 -16 74
-31 77 -35 3 -4 19 -10 36 -13 38 -8 124 -61 124 -76 0 -5 5 -10 12 -10 6 0 2
10 -9 23 -12 12 -40 58 -62 102 -23 44 -40 72 -37 62 10 -32 -14 -7 -34 36
-20 41 -41 71 -179 249 -128 164 -163 214 -180 248 -9 19 -23 41 -31 48 -13
10 -13 14 4 27 11 8 31 16 45 17 54 3 77 6 121 17 25 6 63 11 85 11 23 0 45 4
51 9 12 12 162 18 194 8 l25 -8 -25 16 c-23 15 -18 15 85 10 105 -5 109 -5 82
11 -18 9 -39 13 -54 9 -16 -4 -22 -2 -18 5 7 12 7 12 -20 1z"/>
<path d="M2879 2286 c8 -10 35 -32 60 -49 25 -17 50 -37 54 -44 4 -7 15 -13
23 -13 8 0 13 -4 10 -9 -3 -5 0 -11 8 -14 8 -3 30 -30 50 -59 19 -29 48 -67
64 -85 22 -23 27 -34 18 -43 -6 -6 -6 -10 -1 -8 24 7 165 -177 165 -216 0 -11
-7 -34 -15 -50 -8 -15 -15 -34 -15 -41 0 -8 -6 -20 -13 -27 -21 -21 -40 -76
-31 -90 6 -10 4 -10 -9 1 -15 12 -17 10 -17 -23 0 -20 -5 -36 -10 -36 -6 0
-21 -25 -35 -56 -21 -46 -28 -55 -45 -51 -15 4 -20 0 -20 -13 0 -10 -12 -32
-26 -49 -18 -21 -23 -37 -19 -51 6 -19 10 -16 36 26 17 26 37 53 45 61 8 8 14
18 14 23 0 4 9 10 20 13 13 3 18 10 14 21 -3 9 -1 16 5 16 6 0 11 6 11 13 0
14 31 47 43 47 11 0 65 -118 58 -126 -3 -4 -1 -4 6 0 9 5 5 22 -15 64 -15 31
-33 62 -41 68 -14 11 -12 27 5 68 5 14 4 17 -4 12 -8 -5 -10 -1 -5 10 6 16 8
15 16 -4 13 -28 31 -29 22 -2 -9 27 25 142 34 117 4 -10 11 -17 16 -16 18 4
27 -74 30 -251 1 -96 0 -158 -2 -137 -2 20 -8 35 -14 32 -5 -4 -9 -1 -9 4 0 6
-4 11 -9 11 -6 0 -3 -12 4 -27 8 -15 17 -46 21 -70 3 -23 14 -49 24 -58 17
-16 18 -15 9 22 -5 21 -9 115 -9 208 0 115 -5 187 -15 224 -8 30 -11 59 -8 64
3 6 2 7 -4 4 -5 -3 -10 0 -10 8 0 20 11 19 32 -5 10 -11 20 -18 23 -16 2 3 -8
17 -22 33 -28 30 -33 43 -15 43 5 0 7 5 4 10 -4 6 -14 8 -23 6 -11 -4 -21 3
-28 19 -11 23 -11 24 9 13 19 -10 19 -8 -4 20 -13 17 -30 29 -38 26 -8 -2 -11
1 -8 10 6 15 -50 89 -63 81 -4 -3 -19 11 -34 29 -14 19 -33 41 -42 50 -8 9
-13 16 -9 16 4 0 -1 7 -9 16 -9 8 -14 20 -11 25 4 5 -1 9 -9 9 -9 0 -16 3 -16
8 0 4 -22 31 -48 59 -27 29 -46 56 -43 60 3 3 1 3 -5 0 -7 -4 -17 0 -24 8 -7
8 -18 15 -24 15 -6 0 -29 15 -51 32 -22 18 -34 24 -26 14z"/>
<path d="M1045 2248 c-4 -9 -1 -26 5 -38 6 -11 10 -50 9 -86 -2 -53 -8 -74
-32 -112 -16 -26 -34 -61 -39 -79 -7 -27 -15 -33 -46 -38 -62 -10 -68 -13 -39
-14 16 0 26 -5 23 -10 -4 -5 4 -7 16 -4 19 4 20 3 8 -6 -13 -9 -13 -11 3 -11
9 0 17 4 17 8 0 5 18 16 40 25 l40 15 2 -71 c0 -40 1 -78 1 -84 -1 -7 3 -13 7
-13 4 0 7 41 6 91 -1 87 0 92 25 111 38 28 62 29 76 1 15 -29 33 -123 23 -123
-7 0 3 -85 19 -159 12 -55 21 -131 15 -131 -4 0 -35 57 -34 65 1 26 -1 35 -8
35 -5 0 -6 -15 -4 -32 4 -32 4 -32 -39 22 -24 30 -49 59 -56 63 -7 4 -13 17
-13 27 0 11 -4 20 -10 20 -5 0 -10 -5 -10 -11 0 -6 -8 -8 -19 -4 -11 3 -33 -3
-53 -16 -36 -23 -36 -23 45 -4 17 4 27 -2 47 -31 14 -21 38 -51 55 -68 16 -16
24 -27 18 -22 -8 4 -13 1 -13 -8 0 -9 5 -15 11 -14 6 2 15 -8 20 -22 8 -23 8
-23 -5 -7 -12 15 -14 16 -20 2 -3 -8 -2 -15 3 -15 5 0 12 -20 15 -45 4 -25 11
-45 16 -45 5 0 5 -12 2 -27 -11 -42 -8 -247 3 -253 6 -3 9 10 7 33 -2 20 0 52
4 70 6 28 8 30 16 12 6 -15 7 -13 3 10 -8 48 -10 52 -25 71 -8 10 -10 15 -3
11 8 -5 11 3 9 28 -2 19 0 35 3 35 4 0 4 29 1 64 -5 58 -4 62 12 52 21 -13 28
-29 35 -76 3 -19 20 -60 38 -92 18 -31 31 -59 28 -62 -4 -3 1 -14 9 -23 8 -10
20 -33 28 -50 7 -18 16 -33 21 -33 5 0 6 -8 3 -17 -5 -15 -4 -15 4 -4 9 12 20
6 64 -34 29 -26 58 -54 64 -61 6 -8 14 -10 18 -6 4 4 6 0 4 -8 -2 -8 3 -15 10
-16 6 -1 15 -2 20 -3 14 -3 87 -71 75 -71 -7 0 -29 15 -49 32 -20 18 -42 33
-48 33 -6 1 -19 5 -28 9 -23 10 -58 -1 -40 -13 10 -6 8 -14 -8 -33 -11 -15
-20 -29 -20 -33 0 -4 -12 -22 -27 -40 -54 -63 -63 -75 -53 -75 5 0 21 15 35
34 14 19 32 37 40 40 24 9 -4 -40 -29 -52 -18 -8 -22 -19 -24 -63 -2 -57 10
-52 23 11 4 19 14 42 21 50 50 54 66 82 55 93 -8 8 -11 7 -11 -6 0 -9 -5 -17
-11 -17 -8 0 12 48 38 89 5 8 62 -22 84 -45 12 -13 28 -24 35 -24 24 0 25 -20
2 -29 l-23 -10 23 0 c12 -1 22 4 22 9 0 6 8 10 18 10 14 0 15 2 2 10 -8 5 -10
10 -4 10 5 0 19 -7 30 -16 10 -8 13 -12 5 -8 -8 4 -19 0 -26 -9 -7 -9 -27 -23
-46 -31 -19 -9 -27 -16 -19 -16 10 -1 9 -4 -5 -10 -27 -12 -43 -12 -25 0 21
14 2 12 -43 -4 -21 -7 -46 -21 -55 -31 -10 -11 -11 -15 -3 -10 9 5 12 4 7 -3
-4 -7 -14 -12 -21 -12 -14 0 -18 -12 -28 -65 -2 -11 -9 -19 -16 -17 -8 2 -11
-3 -8 -12 5 -13 -48 -126 -59 -126 -2 0 -2 19 2 43 4 34 3 38 -6 24 -6 -10
-12 -32 -12 -50 -1 -18 -7 -41 -14 -52 -7 -11 -16 -40 -19 -65 -6 -42 -5 -44
9 -26 9 11 16 26 16 33 0 7 5 13 10 13 6 0 10 10 10 22 0 19 46 98 57 98 2 0
1 -5 -3 -12 -4 -6 -3 -8 3 -5 6 4 13 25 17 47 3 22 15 49 26 60 19 19 19 19
13 -13 -12 -64 -30 -102 -54 -114 -13 -7 -19 -13 -12 -13 8 0 12 -24 11 -75 0
-41 -4 -75 -9 -75 -5 0 -10 10 -10 23 -1 12 -2 29 -3 39 -1 9 -4 20 -8 24 -5
4 -8 -18 -8 -49 0 -31 -5 -57 -10 -57 -6 0 -9 3 -9 8 1 4 0 18 -1 32 -2 23 -3
23 -12 -7 -6 -18 -15 -33 -19 -33 -5 0 -8 3 -7 8 2 4 -1 9 -7 12 -5 3 -11 -5
-13 -18 -4 -28 -62 -62 -62 -37 0 9 -5 13 -10 10 -6 -4 -8 -11 -5 -16 4 -5 -3
-9 -13 -9 -11 0 -22 -7 -26 -15 -4 -10 -21 -15 -58 -16 -45 -1 -49 -2 -23 -9
l30 -8 -33 -1 c-20 -1 -31 -6 -30 -14 5 -20 -37 -10 -115 28 -40 19 -63 33
-52 30 14 -4 17 -3 10 4 -10 10 -42 18 -73 20 -7 1 -10 6 -6 13 4 7 3 8 -4 4
-12 -7 -49 12 -92 48 -17 15 -21 16 -11 4 7 -10 9 -18 3 -18 -13 0 -33 25 -27
33 3 4 2 5 -1 3 -9 -7 -69 52 -62 60 4 3 14 -1 23 -10 9 -9 19 -16 23 -16 3 0
1 5 -6 12 -7 7 -13 48 -14 102 l-2 91 -3 -82 c-4 -83 -8 -94 -31 -71 -15 15
-17 414 -2 423 5 3 11 -33 13 -92 l3 -98 2 103 c2 101 2 102 26 102 14 0 28 4
31 10 3 5 17 10 30 10 13 0 26 4 29 9 3 4 -8 7 -24 5 -17 -2 -30 0 -30 4 1 13
35 71 43 72 4 0 14 0 23 0 8 0 13 3 11 8 -3 4 72 4 166 1 169 -6 264 1 162 11
l-50 5 -3 130 c-3 136 -8 179 -20 171 -4 -2 -7 6 -8 17 -2 45 -53 220 -68 236
-11 10 -16 11 -16 3 0 -9 -5 -10 -18 -3 -26 14 -99 7 -120 -12 -10 -9 -22 -14
-25 -10 -4 3 -7 -28 -7 -70 0 -56 4 -80 16 -91 16 -16 20 -68 14 -171 l-3 -50
-7 65 c-5 45 -7 23 -5 -73 l2 -139 -31 6 c-35 7 -76 -15 -76 -40 0 -8 -4 -13
-9 -10 -11 7 -24 -60 -15 -76 4 -6 3 -8 -4 -4 -6 3 -13 2 -17 -4 -4 -6 -10 -8
-15 -5 -16 10 -21 -46 -23 -295 -2 -140 -1 -245 1 -233 2 13 10 23 18 23 8 0
12 -4 9 -10 -3 -5 1 -10 10 -10 9 0 14 -4 11 -9 -3 -4 10 -16 29 -27 18 -10
32 -21 30 -24 -2 -4 22 -15 53 -25 31 -9 76 -30 99 -46 23 -16 48 -29 56 -29
8 0 20 -6 26 -14 7 -8 27 -17 46 -20 19 -4 35 -11 35 -16 0 -6 3 -9 8 -8 4 1
22 -1 41 -5 24 -5 32 -11 27 -22 -4 -12 -2 -13 14 -3 18 12 17 13 -10 25 -30
12 -40 25 -17 22 6 -1 33 -1 60 0 35 1 47 5 47 16 0 17 -17 20 -22 4 -2 -6
-17 -9 -33 -7 l-30 4 30 13 c17 7 44 14 61 15 17 2 42 10 55 19 13 10 27 17
31 17 15 0 8 -39 -7 -43 -11 -4 -10 -4 2 -3 12 1 19 11 21 29 2 15 7 27 12 27
5 0 7 7 4 15 -4 8 -2 15 3 15 5 0 9 -53 10 -117 0 -89 -1 -104 -7 -63 l-7 55
-1 -57 c-1 -31 2 -58 7 -60 5 -2 2 -31 -6 -66 -9 -34 -13 -65 -9 -69 11 -12
18 6 18 47 -1 23 3 38 9 35 9 -6 11 20 11 160 0 44 2 68 5 53 2 -16 9 -28 15
-28 7 0 9 -45 5 -137 -3 -100 -2 -127 5 -98 5 22 9 57 8 78 -1 54 16 38 24
-23 4 -28 11 -60 16 -73 9 -22 9 -22 9 3 0 14 -6 57 -14 95 -15 71 -30 321
-16 275 l7 -25 7 25 c4 14 7 37 7 52 0 15 5 30 10 33 6 3 9 21 9 38 l-2 32 -7
-35 -7 -35 -2 43 c0 25 3 41 9 37 5 -3 14 14 20 37 6 24 22 76 36 116 14 40
22 77 19 82 -3 5 4 15 15 23 11 7 18 17 15 20 -3 4 0 3 6 -2 7 -6 18 -6 28 -1
9 5 28 11 43 14 15 4 33 12 40 19 32 32 55 37 93 21 27 -11 35 -19 30 -31 -5
-16 -5 -16 12 -1 17 15 21 15 50 1 18 -8 43 -26 56 -39 13 -13 35 -28 50 -33
l27 -11 2 -117 c1 -87 3 -104 7 -63 l6 55 18 -89 c17 -88 16 -122 -1 -75 -18
47 -22 54 -16 24 3 -16 12 -37 20 -46 18 -20 35 -72 38 -117 1 -18 7 -37 14
-44 8 -8 9 -2 6 23 -4 34 -4 34 10 9 15 -26 13 -63 -4 -68 -5 -2 -10 -11 -10
-20 0 -15 2 -15 10 -2 8 13 10 12 10 -2 0 -11 8 -18 20 -18 12 0 17 5 14 14
-3 7 4 30 15 49 11 20 24 51 29 69 4 18 13 33 18 33 5 0 27 20 49 45 22 25 29
36 16 25 -17 -14 -23 -16 -19 -5 2 8 14 20 26 26 12 6 19 14 15 17 -3 4 -1 7
5 7 7 0 12 6 12 13 0 7 13 23 29 35 l30 22 4 -28 c3 -21 4 -19 6 11 1 50 21
39 21 -12 0 -21 6 -44 14 -50 11 -9 11 -2 3 42 -5 28 -11 68 -13 87 -2 19 -5
52 -8 72 -4 34 -3 37 14 28 24 -13 52 -14 32 -1 -10 6 -7 12 12 24 14 10 33
17 43 17 10 0 31 9 47 19 17 11 34 17 39 14 6 -4 7 -1 2 7 -6 10 -4 12 7 7 18
-6 52 25 41 38 -5 4 -3 5 3 2 6 -3 46 21 90 53 43 33 84 60 90 60 15 0 26 28
14 35 -11 7 -54 -14 -46 -22 3 -3 -7 -15 -22 -28 -35 -29 -197 -125 -212 -125
-6 0 -8 -5 -4 -12 5 -7 2 -9 -9 -5 -9 3 -17 3 -19 -1 -2 -4 -36 -23 -76 -42
-63 -30 -83 -34 -145 -34 -76 1 -89 3 -124 22 -12 7 -31 12 -42 12 -12 0 -21
4 -21 9 0 4 -21 16 -47 26 -68 25 -183 85 -216 112 -16 13 -34 20 -40 16 -7
-3 -9 -3 -5 2 8 9 -59 54 -128 87 -24 11 -44 26 -44 32 0 7 -11 19 -25 26 -14
7 -32 24 -40 37 -9 12 -21 23 -28 23 -8 0 -7 -4 3 -10 8 -5 10 -10 4 -10 -6 0
-17 6 -23 14 -7 8 -27 21 -46 30 -24 12 -33 22 -30 35 2 11 -7 29 -22 42 -14
13 -36 49 -50 79 -14 30 -29 62 -34 70 -20 32 -20 39 -1 58 17 17 34 20 110
21 69 0 100 5 129 19 21 11 51 22 67 26 15 4 26 9 24 11 -2 3 -31 -3 -64 -11
-66 -19 -126 -25 -118 -12 3 4 15 7 28 6 12 -1 35 3 52 10 54 21 138 31 153
19 11 -9 13 -9 8 0 -9 15 4 23 45 27 19 1 45 9 58 17 14 7 30 12 35 10 6 -1 6
1 2 5 -10 10 80 43 148 54 61 10 221 11 185 1 l-25 -7 28 -6 c15 -3 27 -1 27
3 0 5 4 9 10 9 5 0 7 -6 4 -14 -7 -18 14 -32 28 -18 6 6 27 9 47 6 l36 -4 -38
10 c-21 5 -51 17 -67 25 -50 26 -295 23 -305 -3 -3 -8 -12 -12 -20 -8 -8 3
-38 -7 -67 -21 -29 -15 -54 -26 -55 -25 -2 1 -21 -5 -43 -14 -23 -9 -44 -14
-47 -10 -3 3 -11 2 -17 -3 -6 -5 -58 -21 -115 -35 -58 -14 -112 -33 -120 -40
-11 -10 -36 -14 -76 -13 -67 3 -84 10 -83 35 0 68 -33 323 -49 362 -3 8 -6 26
-8 40 -9 94 -19 149 -26 144 -4 -2 -6 -11 -3 -18 3 -8 1 -17 -5 -20 -6 -4 -8
-14 -5 -24 5 -16 5 -16 -6 0 -6 10 -8 29 -3 45 4 15 6 35 5 44 -4 24 26 29
168 29 l125 0 -60 -36 c-74 -44 -117 -84 -110 -102 2 -7 1 -11 -4 -8 -15 10
-28 -18 -20 -44 7 -23 7 -24 8 -3 1 21 91 123 109 123 5 0 26 16 48 35 l39 35
103 0 104 0 38 -40 c21 -22 42 -40 46 -40 4 0 -8 16 -27 36 l-34 37 50 -8 c28
-4 68 -8 90 -10 22 -2 57 -10 77 -19 43 -18 60 -21 38 -5 -12 8 -9 9 12 5 14
-3 34 -9 45 -13 10 -3 15 -3 11 1 -10 12 -99 36 -93 26 8 -13 4 -13 -41 6 -22
9 -52 16 -69 16 -16 -1 -40 5 -51 13 -12 8 -48 15 -80 16 -33 1 -106 4 -164 8
-104 6 -105 6 -40 12 41 3 5 6 -95 6 -88 0 -140 -3 -115 -6 l45 -7 -42 -7
c-101 -17 -123 -18 -123 -9 0 5 -7 13 -16 16 -14 5 -15 4 -4 -9 7 -8 13 -47
15 -89 2 -72 1 -74 -27 -91 -31 -18 -50 -13 -30 7 7 7 12 19 12 28 -1 20 -39
-29 -40 -50 0 -23 -12 -37 -38 -45 -22 -6 -23 -5 -12 14 6 12 15 19 20 16 5
-3 12 0 16 6 4 8 3 9 -4 5 -24 -15 -10 18 38 90 28 41 50 76 50 77 0 2 -10 3
-22 3 -21 -1 -23 4 -25 61 -2 69 -17 111 -28 81z m-124 -607 c9 -9 22 -27 29
-40 17 -33 39 -164 40 -235 0 -67 8 -72 11 -8 4 62 19 51 19 -14 0 -39 -3 -53
-12 -48 -8 5 -9 2 -3 -12 4 -10 10 -54 13 -96 l5 -77 -92 2 c-50 1 -91 6 -91
10 0 5 -4 6 -9 3 -14 -9 -21 21 -20 82 1 44 3 51 9 32 13 -39 11 57 -3 176 -8
70 -17 108 -29 121 -20 21 -24 43 -8 43 5 0 7 6 4 13 -3 8 2 20 11 27 12 10
13 15 3 21 -7 4 -9 11 -5 15 4 4 13 2 19 -4 7 -7 21 -12 33 -11 19 0 19 1 -2
9 -35 14 -27 19 19 12 23 -3 50 -12 59 -21z m1161 -936 c25 -17 42 -20 33 -6
-3 6 15 3 40 -5 25 -9 45 -20 45 -25 0 -6 -7 -6 -18 0 -12 6 -30 7 -48 2 -29
-9 -29 -9 7 -8 49 0 66 -11 42 -29 -19 -14 -15 -18 11 -8 9 3 16 12 16 19 0
21 12 23 55 8 l40 -13 -42 4 c-24 2 -43 0 -43 -5 0 -5 21 -9 46 -9 37 0 45 -3
40 -15 -3 -8 0 -15 6 -15 6 0 8 -3 4 -7 -7 -8 -11 -9 -37 -12 -6 0 -33 -25
-61 -53 -28 -29 -48 -47 -44 -40 12 21 -8 13 -22 -8 -7 -12 -10 -26 -6 -32 4
-6 3 -8 -3 -5 -6 4 -21 -5 -34 -20 -13 -14 -19 -23 -13 -20 22 13 23 -22 1
-47 l-22 -26 -13 21 c-33 53 -52 144 -53 248 0 58 -4 99 -8 92 -13 -20 -23 3
-15 33 6 25 7 25 40 11 19 -8 44 -21 56 -30z"/>
<path d="M2353 2173 c-7 -2 -13 -11 -13 -19 0 -7 -12 -17 -26 -20 -38 -10
-167 4 -176 19 -5 8 -8 7 -8 -5 0 -9 9 -20 20 -23 11 -3 20 -10 20 -15 0 -20
-42 -20 -101 0 -34 11 -65 18 -67 15 -3 -3 0 -5 7 -5 7 0 9 -5 5 -12 -4 -6 -3
-8 4 -4 6 3 26 -3 46 -15 19 -11 41 -17 47 -13 8 5 9 3 5 -5 -5 -8 -3 -11 5
-10 8 1 21 -1 29 -4 8 -3 48 -17 88 -31 39 -14 83 -33 97 -42 24 -16 62 -25
112 -28 12 0 20 -3 18 -5 -9 -8 78 -62 131 -82 45 -17 96 -51 134 -89 7 -7 31
-13 52 -14 9 0 15 -3 12 -7 -2 -4 3 -10 12 -13 24 -9 110 40 158 91 49 52 60
85 56 178 -2 74 -11 93 -31 69 -8 -10 -9 -15 -2 -11 7 4 14 -1 18 -13 8 -25 3
-140 -6 -134 -11 7 -32 -25 -26 -40 3 -8 -1 -20 -9 -27 -12 -10 -13 -9 -8 6 5
13 4 16 -5 11 -7 -5 -11 -17 -8 -27 3 -11 1 -17 -3 -14 -5 3 -11 1 -14 -4 -11
-17 -86 -51 -113 -51 -30 0 -113 37 -113 51 0 5 -7 9 -15 9 -8 0 -14 4 -13 9
5 16 -74 63 -96 57 -22 -5 -93 30 -82 41 3 3 18 -2 33 -11 l28 -17 -24 21
c-13 11 -30 19 -38 16 -7 -3 -13 -1 -13 4 0 6 -9 10 -19 10 -26 0 -218 67
-247 87 -13 8 -24 24 -24 34 0 21 16 34 24 20 4 -5 0 -12 -6 -14 -7 -3 10 -5
37 -5 l50 0 -35 13 c-34 14 -33 14 30 9 39 -3 60 -1 52 4 -11 8 -11 10 1 15 8
3 17 15 20 26 3 12 4 21 4 20 -1 0 -8 -3 -14 -6z"/>
<path d="M3380 1791 c0 -5 7 -12 16 -15 9 -4 14 -9 11 -12 -7 -7 73 -80 85
-76 4 1 8 -3 8 -8 0 -6 12 -23 26 -38 14 -15 32 -43 40 -62 8 -19 25 -45 36
-57 12 -13 18 -26 14 -30 -4 -4 -11 -1 -16 7 -6 8 -10 11 -10 6 0 -4 16 -24
35 -43 19 -19 38 -47 42 -62 6 -27 27 -57 81 -119 l32 -37 -26 65 c-14 36 -35
88 -46 115 -11 28 -34 79 -53 115 -18 36 -43 89 -56 118 -13 30 -25 49 -27 44
-3 -10 16 -61 62 -164 9 -21 13 -38 8 -38 -4 0 -16 17 -27 38 -11 20 -24 40
-28 43 -5 3 -8 9 -8 13 3 14 -30 66 -40 63 -7 -1 -14 4 -17 12 -3 9 0 11 8 6
9 -6 9 -2 0 16 -18 34 -24 38 -15 9 7 -22 6 -23 -9 -11 -9 7 -16 10 -16 5 0
-5 -20 13 -45 40 -25 27 -45 53 -45 58 0 4 -4 8 -10 8 -5 0 -10 -4 -10 -9z"/>
<path d="M2630 1660 c0 -6 -6 -8 -12 -5 -7 4 4 -8 25 -25 20 -18 37 -37 37
-43 0 -6 -3 -7 -6 -4 -4 4 -14 -2 -23 -12 -13 -15 -33 -19 -112 -20 -71 -2
-100 2 -110 12 -15 14 -54 16 -66 2 -5 -4 2 -5 14 -2 13 3 25 1 28 -3 3 -5 -7
-11 -22 -13 -19 -3 -14 -4 16 -6 24 0 61 -6 83 -13 31 -9 47 -9 75 1 29 11 37
11 44 0 6 -10 9 -10 9 -2 0 8 16 12 48 11 54 -1 100 -27 125 -69 11 -20 21
-27 33 -22 12 4 15 2 12 -8 -3 -8 12 -33 33 -56 22 -24 39 -47 39 -53 0 -5 5
-9 12 -8 12 3 44 -54 58 -104 6 -18 4 -32 -7 -45 -8 -10 -12 -12 -8 -5 11 21
-14 13 -26 -9 -22 -42 -124 -120 -175 -134 -29 -9 -29 -9 -4 -13 14 -2 30 -8
37 -14 18 -15 37 0 22 18 -6 8 -10 14 -8 15 2 0 17 2 33 3 21 1 41 16 72 50
28 32 46 46 55 41 9 -6 11 -3 6 8 -4 10 -2 17 4 17 7 0 9 -11 7 -25 -3 -13 -2
-22 2 -20 5 3 11 -22 15 -55 6 -55 16 -73 28 -52 3 4 -1 47 -8 96 -13 88 -12
116 6 116 5 0 9 6 9 14 0 8 9 18 20 21 11 4 18 11 15 16 -4 5 -16 0 -27 -11
-30 -28 -45 -25 -63 13 -8 17 -28 46 -43 62 -15 17 -44 51 -63 77 -55 72 -97
118 -109 118 -5 0 -10 5 -10 11 0 5 5 7 11 3 7 -4 10 -1 7 7 -3 8 -11 14 -19
14 -8 1 -13 6 -12 13 2 6 -11 19 -27 27 -17 9 -28 20 -25 26 4 5 3 9 -2 8 -4
-1 -19 2 -31 6 -16 5 -20 10 -12 15 9 5 9 9 1 14 -6 4 -11 2 -11 -4z"/>
<path d="M3403 1142 c-8 -5 -9 -13 -3 -22 6 -8 10 -10 11 -5 7 38 13 -123 8
-175 -4 -36 -10 -94 -12 -130 -6 -72 -14 -100 -29 -100 -6 0 -4 -7 3 -17 8 -9
13 -19 12 -22 -1 -3 1 -8 3 -10 2 -2 4 3 4 12 0 9 5 17 10 17 6 0 10 -5 10
-11 0 -5 5 -7 10 -4 6 3 10 -1 10 -9 0 -9 6 -16 14 -16 8 0 20 -15 26 -32 12
-33 21 -37 88 -38 12 0 41 -12 62 -26 41 -27 52 -41 25 -30 -8 3 -15 4 -15 2
0 -7 108 -56 124 -56 9 0 14 -4 11 -10 -6 -9 0 -12 35 -14 8 -1 13 -4 10 -8
-9 -13 36 -37 80 -44 31 -5 41 -4 36 4 -4 7 -12 12 -18 12 -6 0 -40 18 -75 41
-36 22 -73 41 -83 42 -10 1 -18 5 -17 9 1 5 -25 23 -58 41 -33 17 -62 34 -65
37 -10 11 -78 40 -95 40 -9 0 -13 4 -10 10 3 6 -1 7 -9 4 -11 -4 -16 0 -16 10
0 9 -8 16 -20 16 -11 0 -20 5 -20 11 0 5 6 7 13 4 6 -4 3 1 -7 9 -11 9 -24 16
-30 16 -6 0 -7 3 0 10 6 6 7 44 3 97 -4 49 -5 92 -2 96 10 17 5 221 -6 225 -6
2 -9 8 -5 13 6 11 3 11 -13 1z"/>
<path d="M1147 1103 c-3 -5 1 -14 9 -21 8 -7 14 -8 14 -2 0 6 7 6 19 -2 11 -7
18 -16 15 -20 -3 -4 1 -5 9 -2 20 7 44 -20 58 -66 7 -22 16 -40 22 -40 5 0 7
-10 3 -23 -3 -13 -6 -62 -7 -110 l-1 -87 -32 1 c-17 2 -42 -1 -55 -5 -20 -7
-23 -5 -18 8 4 11 3 15 -4 11 -5 -4 -9 -14 -7 -23 3 -11 -7 -21 -27 -28 -29
-11 -29 -12 17 -10 33 1 48 5 48 14 0 8 8 12 18 10 11 -2 16 -11 14 -26 -2
-12 2 -22 7 -22 6 0 11 5 11 11 0 5 5 7 10 4 6 -4 8 -10 5 -15 -3 -4 2 -14 11
-21 8 -7 14 -8 13 -3 -4 21 2 34 16 34 8 0 15 4 15 10 0 5 -7 7 -15 4 -11 -5
-13 -2 -9 10 4 10 12 15 19 12 16 -6 53 20 42 30 -4 4 -7 2 -7 -4 0 -7 -12
-12 -27 -12 l-27 0 22 20 c12 12 22 24 22 27 0 4 -5 2 -12 -5 -7 -7 -15 -12
-19 -12 -3 0 -6 51 -6 114 -1 62 -5 122 -11 132 -5 11 -12 36 -16 57 -5 28
-11 37 -22 33 -8 -3 -14 -1 -14 4 0 6 -11 5 -25 -2 -20 -9 -28 -8 -43 5 -20
19 -29 21 -35 10z"/>
<path d="M3050 1001 c-53 -29 -71 -38 -122 -56 -26 -9 -63 -27 -82 -40 -19
-13 -37 -21 -40 -17 -3 3 -6 0 -6 -6 0 -14 -33 -24 -54 -16 -14 5 -14 9 -4 23
7 9 -2 3 -19 -12 -28 -26 -32 -27 -36 -10 -3 10 -5 1 -6 -20 0 -21 -5 -36 -10
-33 -5 3 -16 -6 -26 -20 -16 -25 -17 -25 -32 -7 -8 10 -12 12 -8 6 3 -7 0 -13
-7 -13 -11 0 -11 -2 0 -9 9 -5 11 -17 6 -36 -4 -16 -3 -26 2 -22 10 6 10 6 14
-130 2 -51 7 -93 12 -93 12 0 10 -88 -3 -92 -9 -3 -9 -9 -1 -25 6 -11 9 -35 6
-54 -6 -36 -15 -44 -129 -119 -62 -42 -81 -49 -70 -27 4 6 -3 1 -14 -13 -11
-14 -23 -33 -27 -42 -6 -20 -34 -24 -51 -7 -6 6 -33 11 -59 11 -37 -1 -51 3
-62 19 -11 15 -21 19 -41 14 -19 -4 -22 -3 -11 5 13 9 13 10 0 11 -8 1 -21 1
-29 0 -8 -2 -10 3 -6 11 6 10 5 11 -6 1 -18 -18 -54 -16 -69 2 -11 14 -10 14
15 5 20 -8 31 -8 39 0 8 8 6 9 -8 4 -12 -4 -17 -4 -13 2 15 25 -44 10 -79 -19
-42 -35 -140 -101 -164 -110 -12 -4 -12 -6 2 -6 19 -1 146 78 167 103 12 14
16 14 42 0 16 -8 35 -13 42 -12 18 4 87 -23 87 -34 0 -4 10 -8 23 -8 12 0 54
-13 94 -30 92 -39 142 -32 150 20 1 8 7 16 12 18 6 2 11 8 11 13 0 6 -5 7 -12
3 -7 -4 -8 -3 -4 5 4 6 11 9 15 6 5 -2 17 5 27 17 34 37 123 90 144 83 10 -3
22 0 26 6 5 9 2 10 -10 6 -9 -4 -15 -3 -12 2 3 5 18 12 33 16 45 11 162 21
156 13 -10 -17 14 -7 30 12 9 11 14 20 11 20 -4 0 -1 7 6 15 7 8 16 13 20 10
4 -3 15 6 24 20 14 21 14 24 1 19 -8 -4 -15 -14 -16 -23 0 -12 -2 -12 -9 4 -5
11 -9 14 -9 7 -2 -23 -53 -62 -82 -62 -34 0 -60 10 -54 20 3 5 -5 6 -17 2 -16
-4 -19 -2 -13 8 5 8 -1 7 -16 -3 -31 -22 -39 -21 -40 6 0 18 -3 17 -12 -10 -7
-17 -15 -35 -20 -39 -9 -9 -4 26 6 42 8 13 11 148 4 179 -2 11 1 23 7 28 8 5
6 11 -4 20 -20 16 -14 54 11 67 16 9 19 22 19 81 0 56 4 77 21 100 11 16 25
29 30 29 26 0 108 43 102 54 -4 6 1 5 11 -3 13 -11 14 -16 4 -23 -11 -8 -11
-9 0 -6 8 2 13 8 13 13 0 16 32 46 43 42 6 -3 24 2 39 10 16 8 31 12 34 9 3
-3 15 1 27 9 11 8 29 15 39 15 10 0 16 4 13 9 -3 5 10 12 29 15 19 4 37 12 41
18 5 7 0 9 -14 6 -12 -4 -22 -2 -22 3 0 13 -11 11 -50 -10z"/>
<path d="M3047 829 c-9 -6 -26 -12 -37 -14 -33 -6 -90 -37 -85 -45 5 -9 -43
-43 -61 -43 -6 0 -17 -9 -23 -20 -7 -10 -8 -16 -3 -13 5 3 12 -7 15 -22 24
-114 30 -139 38 -154 5 -10 10 -36 11 -58 1 -21 5 -37 9 -34 4 2 11 -1 15 -7
3 -6 0 -15 -7 -20 -8 -5 -9 -9 -3 -9 7 0 22 9 35 20 21 17 21 19 4 14 -43 -14
2 13 50 31 28 10 66 27 85 39 19 11 38 20 42 18 5 -1 7 2 5 7 -1 5 10 22 25
39 26 30 28 52 2 29 -7 -7 -29 -23 -48 -37 -32 -22 -53 -51 -24 -34 7 4 8 3 4
-5 -4 -6 -11 -9 -16 -6 -10 6 -67 -20 -88 -41 -7 -8 -17 -14 -22 -14 -5 0 -15
-3 -24 -6 -13 -5 -16 2 -17 32 0 30 -2 34 -8 19 -5 -12 -9 20 -10 79 -1 54 -5
105 -10 115 -10 20 -3 43 11 35 6 -4 8 -3 5 3 -3 5 13 18 36 28 40 18 136 85
120 85 -4 0 -16 -5 -26 -11z"/>
<path d="M3930 379 c-11 -6 -7 -9 15 -9 23 0 27 -3 15 -10 -12 -8 -11 -10 6
-10 24 0 48 -23 36 -35 -4 -5 -1 -5 6 -1 22 13 71 -32 89 -84 9 -27 21 -46 25
-44 4 3 8 -9 8 -25 0 -17 -4 -31 -10 -31 -14 0 -12 -47 3 -54 6 -3 -1 -4 -18
-3 -19 1 -29 7 -27 15 2 9 -8 6 -28 -8 -16 -12 -30 -25 -30 -30 0 -5 -17 -18
-37 -29 -36 -19 -37 -20 -11 -21 17 0 34 9 47 26 17 22 31 27 71 29 30 2 50
-2 50 -8 0 -6 -3 -7 -7 -4 -3 4 -12 2 -19 -4 -8 -6 -20 -9 -28 -6 -8 3 -25 -3
-38 -13 l-23 -19 23 -1 c12 0 39 7 58 15 25 10 41 12 54 5 28 -15 43 -12 36 6
-5 12 -2 15 11 10 25 -10 2 13 -29 28 -21 11 -23 18 -25 105 -3 88 -4 94 -30
114 -15 12 -37 32 -48 45 -36 42 -116 70 -145 51z"/>
</g>
</svg>
